<?xml version="1.0" encoding="utf-8"?>
<!-- Generator: Adobe Illustrator 24.1.2, SVG Export Plug-In . SVG Version: 6.00 Build 0)  -->
<svg version="1.1" xmlns="http://www.w3.org/2000/svg" xmlns:xlink="http://www.w3.org/1999/xlink" x="0px" y="0px"
	 viewBox="0 0 409.6 409.6" style="enable-background:new 0 0 409.6 409.6;" xml:space="preserve">
<style type="text/css">
	.st0{display:none;}
	.st1{display:inline;}
	.st2{fill:#E26C0B;}
</style>
<g id="Capa_1" class="st0">
	<g class="st1">
		<path d="M410.4,209.2c-2.6,8.3-8.5,13.9-15.1,19c-6.9,5.2-13.8,10.4-20.6,15.6c-4.7,3.6-6,8.4-3.8,13.9c3.3,8.4,7,16.6,10.4,25
			c1.4,3.4,2.6,7,3.4,10.6c2.7,11.6-2.5,20.7-14.1,23.8c-7.5,2-15.4,2.7-23.1,3.9c-5.1,0.8-10.3,1.4-15.3,2.3
			c-4.8,0.9-8,3.9-8.7,8.7c-1.5,9.6-2.5,19.2-3.9,28.8c-0.6,3.8-1.4,7.6-2.7,11.2c-3.8,10.8-12.7,15.6-23.7,12.5
			c-7.2-2.1-14.2-5.2-21.2-8c-4.6-1.8-9.1-3.8-13.7-5.5c-5.6-2.1-10.5-0.9-14.4,3.7c-2.7,3.3-5.3,6.6-7.9,10
			c-3.5,4.7-6.9,9.4-10.5,14c-4.3,5.4-9.5,9.6-16.2,11.7c-2.1,0-4.3,0-6.4,0c-3.7-2.1-7.5-3.9-10.9-6.3c-3.3-2.4-3.5-6.1-1.3-8.7
			c2.1-2.5,5.7-3.1,8.5-0.6c6.1,5.4,10.2,4.3,15.5-2c6.9-8.4,13.3-17.3,20.2-25.7c6.9-8.5,15.8-11.3,26.4-7.7
			c3.4,1.2,6.8,2.4,10.1,3.8c6.6,2.7,13.2,5.6,19.8,8.4c0.6,0.3,1.2,0.5,1.9,0.7c8.4,2.6,12.1,0.7,13.6-7.9
			c1.4-8.1,2.1-16.3,3.1-24.5c0.3-2.5,0.7-5,1.1-7.5c2.1-11.8,8.7-19.2,20.7-21.1c9.4-1.5,19-2.5,28.4-3.7c1.1-0.1,2.1-0.3,3.1-0.5
			c10.4-2.3,12.5-5.8,8.5-15.8c-3.5-9-7.8-17.8-11.2-26.8c-5.2-13.8-2.9-22,8.6-31.3c6.8-5.5,14.1-10.5,20.9-15.9
			c11.1-8.7,11.1-13.3,0.1-22c-7.3-5.8-14.9-11.1-22.1-17c-6.2-5-11-11.2-9.8-19.8c0.7-5.2,2.3-10.4,4.1-15.3
			c2.8-7.5,6.2-14.7,9.3-22c0.5-1.1,0.9-2.2,1.1-3.4c1.6-7.2-0.5-10.7-7.8-11.9c-8.8-1.5-17.7-2.3-26.5-3.5
			c-19.9-2.7-26.1-9-28.6-28.9c-0.9-7-1.5-14-2.4-21c-0.3-2.4-0.9-4.7-1.5-7c-1.7-5.6-3.1-6.5-8.9-6.3c-0.8,0-1.6,0.1-2.4,0
			c-3.2-0.5-5.1-2.3-5.4-5.5c-0.3-3.2,1.5-5.3,4.5-6.2c8.1-2.4,17.3,0.7,20.7,8.5c2.9,6.7,4.3,14.1,5.7,21.4
			c1.3,6.8,1.4,13.8,2.6,20.5c1.4,7.9,4.1,10.4,12,11.6c11,1.7,22.2,2.8,33.1,4.9c14.6,2.8,20.7,13,16,27.1
			c-3.1,9.6-7.5,18.7-11.3,28c-0.6,1.5-1,3-1.6,4.5c-2.3,6-0.8,10.9,4.2,14.8c3.3,2.5,6.5,5,9.8,7.5c3.4,2.6,6.9,5,10.3,7.6
			c6.6,5.1,12.5,10.7,15.1,19C410.4,204.9,410.4,207.1,410.4,209.2z"/>
		<path d="M242.2,308.5c-37.3-1.1-68.8-13.6-93.3-41c-39.9-44.6-32.3-111.6,11.5-146.4c28.3-22.5,68.8-23.3,98.5-2.2
			c4.7,3.3,5.8,6.6,3.4,9.9c-2.3,3.1-5.7,3-10.2,0c-22.4-15.1-46.2-17.6-70.8-6.4c-21,9.6-34.3,26.7-41.4,48.2
			c-13.3,40.2,1.6,82.1,36.9,105.6c23.3,15.6,48.9,22.2,76.8,19.4c1.5-0.1,2.9-0.2,4.4-0.3c3.9,0,6.5,1.9,6.8,5.2
			c0.4,3.3-2,6.2-6,6.7C253,307.8,247.2,308.1,242.2,308.5z"/>
		<path d="M25.6,299c2.3-7,4.3-13.5,6.7-19.8c2.5-6.6,5.8-12.8,8.2-19.4c3.1-8.4,1.7-12.5-5.4-18c-5.9-4.6-12-8.8-17.9-13.3
			c-3.1-2.4-6.2-5.1-8.9-7.9c-9.6-10-8.8-21.8,2.6-31.6c8.7-7.4,18-14.1,27.1-21c2.7-2.1,6.3-1.5,8.2,0.9c2,2.5,1.8,5.9-0.8,8.2
			c-3.5,3.1-7.2,5.8-10.9,8.7c-5.4,4.2-11.2,8.2-16.3,12.8c-6,5.3-5.9,8.8-0.4,14.4c2.8,2.8,6,5.2,9.1,7.7
			c5.8,4.5,11.8,8.6,17.4,13.3c9.9,8.3,12.2,16.6,7.8,28.8c-3.2,8.8-7.2,17.4-10.8,26.1c-0.2,0.4-0.3,0.7-0.5,1.1
			c-4.5,11.4-2.1,15.5,10.2,17.2c9.1,1.2,18.2,2,27.3,3.4c14.5,2.2,21.1,9.1,23.2,23.7c1.4,9.9,2.4,19.8,4,29.6
			c1.4,8.8,5.4,11.1,13.9,8c7.9-2.8,15.4-6.6,23.2-9.6c5.1-1.9,10.4-3.4,15.7-4.3c7.2-1.2,12.9,2.4,17.7,7.3c3.2,3.3,6.1,7,8.9,10.7
			c2.3,3,1.8,6.6-0.6,8.6c-2.7,2.2-6.1,1.8-8.8-1.3c-3-3.4-5.7-7-8.8-10.3c-2.7-3-6.2-4.2-10.2-2.7c-6.6,2.4-13.1,5.1-19.6,7.6
			c-5.3,2.1-10.6,4.4-16,6c-13.6,4-23.6-1.8-26.5-15.7c-1.8-9.1-2.7-18.4-3.9-27.6c-1.9-15-4.2-17.3-19.2-19.2
			c-9.1-1.1-18.3-2-27.2-4c-4.6-1-9.4-3.5-12.7-6.8C28.4,308,27.5,303.1,25.6,299z"/>
		<path d="M253.4,54.1c-7.5,0-12.8-2.6-16.7-7.1c-5.5-6.3-10.4-13.1-15.7-19.6c-3.1-3.8-6.2-7.7-9.6-11.1c-3.7-3.6-7.1-3.6-10.9,0.1
			c-3.5,3.4-6.6,7.2-9.7,11.1c-4.6,5.8-8.9,11.9-13.7,17.7c-7.2,8.7-16.3,11.2-26.8,7.3c-8.7-3.3-17.2-7.1-25.8-10.5
			c-3.1-1.2-6.3-2.2-9.5-2.8c-4.6-0.9-7.5,0.6-8.4,5.1c-1.6,7.2-2.4,14.6-3.6,22c-0.7,4.7-1.2,9.5-2.1,14.2
			c-2.8,13.1-9.3,19.2-22.6,21.1c-10.1,1.5-20.3,2.4-30.4,4.1c-8.5,1.4-10.9,5.1-8.1,13.2c3.2,9.1,7.3,17.9,11,26.9
			c0.7,1.7,1.7,3.8,1.3,5.3c-0.6,2-2.1,4.8-3.8,5.3c-1.9,0.5-5.9-0.5-6.5-1.9c-5.2-12-11.1-24-14.3-36.6
			c-3.2-12.7,3.4-20.8,16.5-23.4c9-1.7,18.1-2.6,27.2-3.8c15.1-1.9,17.3-4.2,19.2-19.2c1.1-9.2,2.2-18.5,3.9-27.6
			c2.1-10.7,8.4-16.7,17.9-16.6c4.9,0,10,1.4,14.7,3c6.4,2.2,12.5,5.3,18.7,8c1.2,0.5,2.4,1.1,3.6,1.6c11.1,4.4,14.9,3.4,22.3-6.1
			c6.1-7.9,11.8-16.1,18.5-23.5c9.9-11.1,21.7-11.3,31.7-0.4c6.1,6.6,11.4,14,16.7,21.3c9.2,12.6,12.1,13.6,26.7,7.5
			c2-0.8,3.9-1.8,5.9-2.3c3.3-0.8,5.9,0.4,7.1,3.5c1.2,3,0.2,5.7-2.6,7.2C268.2,50.6,260.6,53.7,253.4,54.1z"/>
		<path d="M230.7,238.9c-24.9,0.4-47-16.6-51.5-39.7c-4.3-22,9.4-45.1,30.1-50c12.8-3,24.2,0.2,34,8.9c3,2.6,3.5,6.2,1.3,8.8
			c-2.2,2.7-5.7,3-8.9,0.3c-5.6-4.8-11.9-7.6-19.3-7c-13.3,1-24,11.9-25.7,25.8c-2.3,19.1,10.3,35.6,30.5,40
			c20.8,4.4,41.9-6.9,50.8-27.6c7.3-16.9,6.9-33.6-2-49.9c-2.9-5.4-2.6-8.9,0.8-10.9c3.6-2,6.8-0.3,9.8,5.3
			c14.5,26.9,10.1,58.5-11.5,80.1C258.6,233.5,245.7,238.7,230.7,238.9z"/>
	</g>
	<g id="icons" class="st1">
		<path id="search" d="M620.3,191.5L573,144.3c8.9-13.8,13.8-29.5,13.8-47.3c0-49.2-39.4-88.6-88.6-88.6
			c-49.2,0-88.6,39.4-88.6,88.6s39.4,88.6,88.6,88.6c17.7,0,33.5-4.9,47.3-13.8l47.3,47.3c3.9,3.9,8.9,5.9,13.8,5.9
			c10.8,0,19.7-8.9,19.7-19.7C626.2,199.4,624.2,194.5,620.3,191.5z M449,97c0-27.6,21.7-49.2,49.2-49.2s49.2,21.7,49.2,49.2
			s-21.7,49.2-49.2,49.2S449,124.6,449,97z"/>
	</g>
</g>
<g id="Capa_1_copia">
	<g>
		<path d="M410.4,209.2c-2.6,8.3-8.5,13.9-15.1,19c-6.9,5.2-13.8,10.4-20.6,15.6c-4.7,3.6-6,8.4-3.8,13.9c3.3,8.4,7,16.6,10.4,25
			c1.4,3.4,2.6,7,3.4,10.6c2.7,11.6-2.5,20.7-14.1,23.8c-7.5,2-15.4,2.7-23.1,3.9c-5.1,0.8-10.3,1.4-15.3,2.3
			c-4.8,0.9-8,3.9-8.7,8.7c-1.5,9.6-2.5,19.2-3.9,28.8c-0.6,3.8-1.4,7.6-2.7,11.2c-3.8,10.8-12.7,15.6-23.7,12.5
			c-7.2-2.1-14.2-5.2-21.2-8c-4.6-1.8-9.1-3.8-13.7-5.5c-5.6-2.1-10.5-0.9-14.4,3.7c-2.7,3.3-5.3,6.6-7.9,10
			c-3.5,4.7-6.9,9.4-10.5,14c-4.3,5.4-9.5,9.6-16.2,11.7c-2.1,0-4.3,0-6.4,0c-3.7-2.1-7.5-3.9-10.9-6.3c-3.3-2.4-3.5-6.1-1.3-8.7
			c2.1-2.5,5.7-3.1,8.5-0.6c6.1,5.4,10.2,4.3,15.5-2c6.9-8.4,13.3-17.3,20.2-25.7c6.9-8.5,15.8-11.3,26.4-7.7
			c3.4,1.2,6.8,2.4,10.1,3.8c6.6,2.7,13.2,5.6,19.8,8.4c0.6,0.3,1.2,0.5,1.9,0.7c8.4,2.6,12.1,0.7,13.6-7.9
			c1.4-8.1,2.1-16.3,3.1-24.5c0.3-2.5,0.7-5,1.1-7.5c2.1-11.8,8.7-19.2,20.7-21.1c9.4-1.5,19-2.5,28.4-3.7c1.1-0.1,2.1-0.3,3.1-0.5
			c10.4-2.3,12.5-5.8,8.5-15.8c-3.5-9-7.8-17.8-11.2-26.8c-5.2-13.8-2.9-22,8.6-31.3c6.8-5.5,14.1-10.5,20.9-15.9
			c11.1-8.7,11.1-13.3,0.1-22c-7.3-5.8-14.9-11.1-22.1-17c-6.2-5-11-11.2-9.8-19.8c0.7-5.2,2.3-10.4,4.1-15.3
			c2.8-7.5,6.2-14.7,9.3-22c0.5-1.1,0.9-2.2,1.1-3.4c1.6-7.2-0.5-10.7-7.8-11.9c-8.8-1.5-17.7-2.3-26.5-3.5
			c-19.9-2.7-26.1-9-28.6-28.9c-0.9-7-1.5-14-2.4-21c-0.3-2.4-0.9-4.7-1.5-7c-1.7-5.6-3.1-6.5-8.9-6.3c-0.8,0-1.6,0.1-2.4,0
			c-3.2-0.5-5.1-2.3-5.4-5.5c-0.3-3.2,1.5-5.3,4.5-6.2c8.1-2.4,17.3,0.7,20.7,8.5c2.9,6.7,4.3,14.1,5.7,21.4
			c1.3,6.8,1.4,13.8,2.6,20.5c1.4,7.9,4.1,10.4,12,11.6c11,1.7,22.2,2.8,33.1,4.9c14.6,2.8,20.7,13,16,27.1
			c-3.1,9.6-7.5,18.7-11.3,28c-0.6,1.5-1,3-1.6,4.5c-2.3,6-0.8,10.9,4.2,14.8c3.3,2.5,6.5,5,9.8,7.5c3.4,2.6,6.9,5,10.3,7.6
			c6.6,5.1,12.5,10.7,15.1,19C410.4,204.9,410.4,207.1,410.4,209.2z"/>
		<path d="M25.6,299c2.3-7,4.3-13.5,6.7-19.8c2.5-6.6,5.8-12.8,8.2-19.4c3.1-8.4,1.7-12.5-5.4-18c-5.9-4.6-12-8.8-17.9-13.3
			c-3.1-2.4-6.2-5.1-8.9-7.9c-9.6-10-8.8-21.8,2.6-31.6c8.7-7.4,18-14.1,27.1-21c2.7-2.1,6.3-1.5,8.2,0.9c2,2.5,1.8,5.9-0.8,8.2
			c-3.5,3.1-7.2,5.8-10.9,8.7c-5.4,4.2-11.2,8.2-16.3,12.8c-6,5.3-5.9,8.8-0.4,14.4c2.8,2.8,6,5.2,9.1,7.7
			c5.8,4.5,11.8,8.6,17.4,13.3c9.9,8.3,12.2,16.6,7.8,28.8c-3.2,8.8-7.2,17.4-10.8,26.1c-0.2,0.4-0.3,0.7-0.5,1.1
			c-4.5,11.4-2.1,15.5,10.2,17.2c9.1,1.2,18.2,2,27.3,3.4c14.5,2.2,21.1,9.1,23.2,23.7c1.4,9.9,2.4,19.8,4,29.6
			c1.4,8.8,5.4,11.1,13.9,8c7.9-2.8,15.4-6.6,23.2-9.6c5.1-1.9,10.4-3.4,15.7-4.3c7.2-1.2,12.9,2.4,17.7,7.3c3.2,3.3,6.1,7,8.9,10.7
			c2.3,3,1.8,6.6-0.6,8.6c-2.7,2.2-6.1,1.8-8.8-1.3c-3-3.4-5.7-7-8.8-10.3c-2.7-3-6.2-4.2-10.2-2.7c-6.6,2.4-13.1,5.1-19.6,7.6
			c-5.3,2.1-10.6,4.4-16,6c-13.6,4-23.6-1.8-26.5-15.7c-1.8-9.1-2.7-18.4-3.9-27.6c-1.9-15-4.2-17.3-19.2-19.2
			c-9.1-1.1-18.3-2-27.2-4c-4.6-1-9.4-3.5-12.7-6.8C28.4,308,27.5,303.1,25.6,299z"/>
		<path d="M253.4,54.1c-7.5,0-12.8-2.6-16.7-7.1c-5.5-6.3-10.4-13.1-15.7-19.6c-3.1-3.8-6.2-7.7-9.6-11.1c-3.7-3.6-7.1-3.6-10.9,0.1
			c-3.5,3.4-6.6,7.2-9.7,11.1c-4.6,5.8-8.9,11.9-13.7,17.7c-7.2,8.7-16.3,11.2-26.8,7.3c-8.7-3.3-17.2-7.1-25.8-10.5
			c-3.1-1.2-6.3-2.2-9.5-2.8c-4.6-0.9-7.5,0.6-8.4,5.1c-1.6,7.2-2.4,14.6-3.6,22c-0.7,4.7-1.2,9.5-2.1,14.2
			c-2.8,13.1-9.3,19.2-22.6,21.1c-10.1,1.5-20.3,2.4-30.4,4.1c-8.5,1.4-10.9,5.1-8.1,13.2c3.2,9.1,7.3,17.9,11,26.9
			c0.7,1.7,1.7,3.8,1.3,5.3c-0.6,2-2.1,4.8-3.8,5.3c-1.9,0.5-5.9-0.5-6.5-1.9c-5.2-12-11.1-24-14.3-36.6
			c-3.2-12.7,3.4-20.8,16.5-23.4c9-1.7,18.1-2.6,27.2-3.8c15.1-1.9,17.3-4.2,19.2-19.2c1.1-9.2,2.2-18.5,3.9-27.6
			c2.1-10.7,8.4-16.7,17.9-16.6c4.9,0,10,1.4,14.7,3c6.4,2.2,12.5,5.3,18.7,8c1.2,0.5,2.4,1.1,3.6,1.6c11.1,4.4,14.9,3.4,22.3-6.1
			c6.1-7.9,11.8-16.1,18.5-23.5c9.9-11.1,21.7-11.3,31.7-0.4c6.1,6.6,11.4,14,16.7,21.3c9.2,12.6,12.1,13.6,26.7,7.5
			c2-0.8,3.9-1.8,5.9-2.3c3.3-0.8,5.9,0.4,7.1,3.5c1.2,3,0.2,5.7-2.6,7.2C268.2,50.6,260.6,53.7,253.4,54.1z"/>
	</g>
	<g id="icons_1_">
		<path id="search_1_" class="st2" d="M307.2,274.6l-47.3-47.3c8.9-13.8,13.8-29.5,13.8-47.3c0-49.2-39.4-88.6-88.6-88.6
			s-88.6,39.4-88.6,88.6s39.4,88.6,88.6,88.6c17.7,0,33.5-4.9,47.3-13.8l47.3,47.3c3.9,3.9,8.9,5.9,13.8,5.9
			c10.8,0,19.7-8.9,19.7-19.7C313.1,282.5,311.1,277.6,307.2,274.6z M135.9,180.1c0-27.6,21.7-49.2,49.2-49.2s49.2,21.7,49.2,49.2
			s-21.7,49.2-49.2,49.2S135.9,207.7,135.9,180.1z"/>
	</g>
</g>
</svg>
