<?xml version="1.0" encoding="utf-8"?>
<!-- Generator: Adobe Illustrator 24.1.2, SVG Export Plug-In . SVG Version: 6.00 Build 0)  -->
<svg version="1.1" id="Capa_1" xmlns="http://www.w3.org/2000/svg" xmlns:xlink="http://www.w3.org/1999/xlink" x="0px" y="0px"
	 viewBox="0 0 24 24" style="enable-background:new 0 0 24 24;" xml:space="preserve">
<g id="info">
</g>
<g id="icons">
	<path id="exit" d="M16.8,12L23,5.8c1.4-1.4,1.4-3.4,0-4.8s-3.4-1.4-4.8,0L12,7.2L5.8,1C4.5-0.3,2.4-0.3,1,1s-1.4,3.4,0,4.8L7.2,12
		L1,18.2c-1.4,1.4-1.4,3.4,0,4.8c0.7,0.7,1.5,1,2.4,1s1.7-0.3,2.4-1l6.2-6.2l6.2,6.2c0.7,0.7,1.5,1,2.4,1s1.7-0.3,2.4-1
		c1.4-1.4,1.4-3.4,0-4.8L16.8,12z"/>
</g>
</svg>
