<?xml version="1.0" encoding="utf-8"?>
<!-- Generator: Adobe Illustrator 24.1.2, SVG Export Plug-In . SVG Version: 6.00 Build 0)  -->
<svg version="1.1" id="Capa_1" xmlns="http://www.w3.org/2000/svg" xmlns:xlink="http://www.w3.org/1999/xlink" x="0px" y="0px"
	 viewBox="0 0 24 24" style="enable-background:new 0 0 24 24;" xml:space="preserve">
<g id="info">
</g>
<g id="icons">
	<g id="menu">
		<path d="M21.6,9H2.4C1.1,9,0,10.3,0,12s1.1,3,2.4,3h19.2c1.3,0,2.4-1.3,2.4-3S22.9,9,21.6,9z"/>
		<path d="M2.4,6h14.4c1.3,0,2.4-1.4,2.4-3s-1.1-3-2.4-3H2.4C1.1,0,0,1.4,0,3S1.1,6,2.4,6z"/>
		<path d="M16.8,18H2.4C1.1,18,0,19.3,0,21s1.1,3,2.4,3h14.4c1.3,0,2.4-1.3,2.4-3S18.1,18,16.8,18z"/>
	</g>
</g>
</svg>
