<?xml version="1.0" encoding="utf-8"?>
<!-- Generator: Adobe Illustrator 24.1.2, SVG Export Plug-In . SVG Version: 6.00 Build 0)  -->
<svg version="1.1" id="Capa_1" xmlns="http://www.w3.org/2000/svg" xmlns:xlink="http://www.w3.org/1999/xlink" x="0px" y="0px"
	 viewBox="0 0 24 24" style="enable-background:new 0 0 24 24;" xml:space="preserve">
<g id="info">
</g>
<g id="icons">
	<path id="search" d="M23.3,20.3l-5.2-5.2c1-1.5,1.5-3.3,1.5-5.2c0-5.5-4.4-9.8-9.8-9.8S0,4.4,0,9.8s4.4,9.8,9.8,9.8
		c2,0,3.7-0.5,5.2-1.5l5.2,5.2c0.4,0.4,1,0.7,1.5,0.7c1.2,0,2.2-1,2.2-2.2C24,21.2,23.8,20.6,23.3,20.3z M4.4,9.8
		c0-3.1,2.4-5.5,5.5-5.5s5.5,2.4,5.5,5.5s-2.4,5.5-5.5,5.5S4.4,12.9,4.4,9.8z"/>
</g>
</svg>
